<?xml version="1.0" encoding="UTF-8"?>
<svg width="700pt" height="500pt" version="1.1" viewBox="0 0 700 700" xmlns="http://www.w3.org/2000/svg" xmlns:xlink="http://www.w3.org/1999/xlink">
 <defs>
  <symbol id="u" overflow="visible">
   <path d="m3.9844-0.23438c-0.21094 0.10547-0.42969 0.18359-0.65625 0.23438-0.21875 0.050781-0.44922 0.078125-0.6875 0.078125-0.71875 0-1.293-0.19531-1.7188-0.59375-0.41797-0.40625-0.625-0.95312-0.625-1.6406 0-0.69531 0.20703-1.2422 0.625-1.6406 0.42578-0.40625 1-0.60938 1.7188-0.60938 0.23828 0 0.46875 0.027344 0.6875 0.078125 0.22656 0.054687 0.44531 0.13672 0.65625 0.25v0.89062c-0.21094-0.14453-0.41797-0.25-0.625-0.3125-0.19922-0.0625-0.40625-0.09375-0.625-0.09375-0.39844 0-0.71094 0.13281-0.9375 0.39062-0.23047 0.25-0.34375 0.60156-0.34375 1.0469 0 0.44922 0.11328 0.80469 0.34375 1.0625 0.22656 0.25 0.53906 0.375 0.9375 0.375 0.21875 0 0.42578-0.03125 0.625-0.09375 0.20703-0.070312 0.41406-0.17969 0.625-0.32812z"/>
  </symbol>
  <symbol id="c" overflow="visible">
   <path d="m2.9062-2.3594c-0.085938-0.039063-0.17188-0.070313-0.26562-0.09375-0.09375-0.019531-0.18359-0.03125-0.26562-0.03125-0.27344 0-0.48047 0.089844-0.625 0.26562-0.14844 0.16797-0.21875 0.40625-0.21875 0.71875v1.5h-1.0312v-3.25h1.0312v0.53125c0.13281-0.20703 0.28516-0.35938 0.45312-0.45312 0.17578-0.10156 0.39062-0.15625 0.64062-0.15625 0.03125 0 0.066406 0.007813 0.10938 0.015625 0.039063 0 0.097656 0.007812 0.17188 0.015625z"/>
  </symbol>
  <symbol id="a" overflow="visible">
   <path d="m3.7344-1.625v0.28125h-2.4219c0.019531 0.25 0.10156 0.4375 0.25 0.5625 0.15625 0.11719 0.36719 0.17188 0.64062 0.17188 0.21875 0 0.44141-0.03125 0.67188-0.09375 0.22656-0.0625 0.46875-0.16016 0.71875-0.29688v0.79688c-0.25 0.09375-0.5 0.16406-0.75 0.20312-0.24219 0.050781-0.48438 0.078125-0.73438 0.078125-0.58594 0-1.043-0.14453-1.375-0.4375-0.32422-0.30078-0.48438-0.72266-0.48438-1.2656 0-0.53125 0.16016-0.94531 0.48438-1.25 0.32031-0.30078 0.76562-0.45312 1.3281-0.45312 0.50781 0 0.91406 0.15625 1.2188 0.46875 0.30078 0.30469 0.45312 0.71484 0.45312 1.2344zm-1.0625-0.35938c0-0.1875-0.058594-0.34375-0.17188-0.46875-0.11719-0.125-0.26562-0.1875-0.45312-0.1875-0.19922 0-0.35938 0.058594-0.48438 0.17188-0.125 0.11719-0.20312 0.27734-0.23438 0.48438z"/>
  </symbol>
  <symbol id="i" overflow="visible">
   <path d="m1.9531-1.4688c-0.21875 0-0.38672 0.042969-0.5 0.125-0.10547 0.074219-0.15625 0.17969-0.15625 0.3125 0 0.13672 0.039063 0.24219 0.125 0.3125 0.09375 0.074219 0.21875 0.10938 0.375 0.10938 0.19531 0 0.36328-0.066406 0.5-0.20312 0.13281-0.14453 0.20312-0.32031 0.20312-0.53125v-0.125zm1.5938-0.39062v1.8594h-1.0469v-0.48438c-0.14844 0.19922-0.30859 0.34375-0.48438 0.4375-0.16797 0.082031-0.375 0.125-0.625 0.125-0.33594 0-0.60938-0.09375-0.82812-0.28125-0.21094-0.19531-0.3125-0.45312-0.3125-0.76562 0-0.38281 0.12891-0.66406 0.39062-0.84375 0.26953-0.17578 0.67969-0.26562 1.2344-0.26562h0.625v-0.078125c0-0.16406-0.070312-0.28516-0.20312-0.35938-0.125-0.082031-0.32812-0.125-0.60938-0.125-0.21875 0-0.42969 0.027344-0.625 0.078125-0.1875 0.042969-0.35938 0.10547-0.51562 0.1875v-0.78125c0.21875-0.050781 0.4375-0.09375 0.65625-0.125 0.22656-0.03125 0.45312-0.046875 0.67188-0.046875 0.59375 0 1.0195 0.12109 1.2812 0.35938 0.25781 0.23047 0.39062 0.60156 0.39062 1.1094z"/>
  </symbol>
  <symbol id="b" overflow="visible">
   <path d="m1.625-4.1719v0.92188h1.0781v0.75h-1.0781v1.375c0 0.14844 0.03125 0.24609 0.09375 0.29688 0.0625 0.054687 0.17969 0.078125 0.35938 0.078125h0.53125v0.75h-0.89062c-0.40625 0-0.69922-0.082031-0.875-0.25-0.16797-0.17578-0.25-0.46875-0.25-0.875v-1.375h-0.51562v-0.75h0.51562v-0.92188z"/>
  </symbol>
  <symbol id="h" overflow="visible">
   <path d="m2.7031-2.7656v-1.75h1.0469v4.5156h-1.0469v-0.46875c-0.13672 0.1875-0.29297 0.32812-0.46875 0.42188-0.16797 0.082031-0.36719 0.125-0.59375 0.125-0.40625 0-0.74219-0.15625-1-0.46875-0.25-0.32031-0.375-0.73438-0.375-1.2344s0.125-0.90625 0.375-1.2188c0.25781-0.32031 0.59375-0.48438 1-0.48438 0.21875 0 0.41406 0.046875 0.59375 0.14062 0.17578 0.085938 0.33203 0.22656 0.46875 0.42188zm-0.67188 2.0938c0.21875 0 0.38281-0.078125 0.5-0.23438 0.11328-0.16406 0.17188-0.40625 0.17188-0.71875 0-0.30078-0.058594-0.53516-0.17188-0.70312-0.11719-0.16406-0.28125-0.25-0.5-0.25-0.23047 0-0.40234 0.085937-0.51562 0.25-0.11719 0.16797-0.17188 0.40234-0.17188 0.70312 0 0.3125 0.054688 0.55469 0.17188 0.71875 0.11328 0.15625 0.28516 0.23438 0.51562 0.23438z"/>
  </symbol>
  <symbol id="g" overflow="visible">
   <path d="m2.2344-0.67188c0.21875 0 0.38281-0.078125 0.5-0.23438 0.11328-0.16406 0.17188-0.40625 0.17188-0.71875 0-0.30078-0.058594-0.53516-0.17188-0.70312-0.11719-0.16406-0.28125-0.25-0.5-0.25-0.23047 0-0.40625 0.085937-0.53125 0.25-0.11719 0.16797-0.17188 0.40234-0.17188 0.70312 0 0.3125 0.054688 0.55469 0.17188 0.71875 0.125 0.15625 0.30078 0.23438 0.53125 0.23438zm-0.70312-2.0938c0.14453-0.19531 0.30078-0.33594 0.46875-0.42188 0.17578-0.09375 0.37891-0.14062 0.60938-0.14062 0.40625 0 0.73438 0.16406 0.98438 0.48438 0.25781 0.3125 0.39062 0.71875 0.39062 1.2188s-0.13281 0.91406-0.39062 1.2344c-0.25 0.3125-0.57812 0.46875-0.98438 0.46875-0.23047 0-0.43359-0.042969-0.60938-0.125-0.16797-0.09375-0.32422-0.23438-0.46875-0.42188v0.46875h-1.0312v-4.5156h1.0312z"/>
  </symbol>
  <symbol id="f" overflow="visible">
   <path d="m0.078125-3.25h1.0312l0.875 2.2031 0.73438-2.2031h1.0469l-1.375 3.5625c-0.13672 0.35156-0.29688 0.60156-0.48438 0.75-0.17969 0.14453-0.41797 0.21875-0.71875 0.21875h-0.59375v-0.6875h0.32812c0.17578 0 0.30078-0.027344 0.375-0.078125 0.082031-0.054687 0.14453-0.15234 0.1875-0.29688l0.03125-0.09375z"/>
  </symbol>
  <symbol id="e" overflow="visible">
   <path d="m3.5625-4.1875v0.90625c-0.24219-0.10156-0.47656-0.17969-0.70312-0.23438-0.23047-0.050781-0.44531-0.078125-0.64062-0.078125-0.26172 0-0.46094 0.039062-0.59375 0.10938-0.125 0.074219-0.1875 0.1875-0.1875 0.34375 0 0.11719 0.039062 0.20312 0.125 0.26562 0.09375 0.0625 0.25 0.12109 0.46875 0.17188l0.48438 0.09375c0.47656 0.09375 0.81641 0.24219 1.0156 0.4375 0.20703 0.19922 0.3125 0.48047 0.3125 0.84375 0 0.48047-0.14844 0.83594-0.4375 1.0625-0.28125 0.23047-0.71094 0.34375-1.2812 0.34375-0.28125 0-0.5625-0.027344-0.84375-0.078125-0.27344-0.050781-0.54297-0.125-0.8125-0.21875v-0.95312c0.26953 0.14844 0.53516 0.26172 0.79688 0.34375 0.25781 0.074219 0.50781 0.10938 0.75 0.10938 0.23828 0 0.42188-0.039062 0.54688-0.125 0.13281-0.082031 0.20312-0.19531 0.20312-0.34375 0-0.13281-0.046875-0.23828-0.14062-0.3125-0.085938-0.082031-0.25781-0.14844-0.51562-0.20312l-0.4375-0.09375c-0.42969-0.09375-0.74609-0.23828-0.95312-0.4375-0.19922-0.20703-0.29688-0.48438-0.29688-0.82812 0-0.4375 0.14062-0.76953 0.42188-1 0.28125-0.22656 0.67969-0.34375 1.2031-0.34375 0.23828 0 0.48438 0.023438 0.73438 0.0625 0.25 0.03125 0.50781 0.085938 0.78125 0.15625z"/>
  </symbol>
  <symbol id="t" overflow="visible">
   <path d="m2.2812-2.6562c0.17578 0 0.30469-0.035156 0.39062-0.10938 0.09375-0.082031 0.14062-0.19531 0.14062-0.34375 0-0.14453-0.046875-0.25391-0.14062-0.32812-0.085937-0.082031-0.21484-0.125-0.39062-0.125h-0.625v0.90625zm0.03125 1.8906c0.22656 0 0.39453-0.046875 0.5-0.14062 0.11328-0.09375 0.17188-0.23438 0.17188-0.42188s-0.058594-0.32812-0.17188-0.42188c-0.10547-0.09375-0.27344-0.14062-0.5-0.14062h-0.65625v1.125zm1.0469-1.5469c0.23828 0.0625 0.42188 0.1875 0.54688 0.375 0.13281 0.1875 0.20312 0.42188 0.20312 0.70312 0 0.41797-0.14062 0.73047-0.42188 0.9375-0.28125 0.19922-0.71484 0.29688-1.2969 0.29688h-1.8438v-4.3281h1.6719c0.60156 0 1.0391 0.09375 1.3125 0.28125 0.26953 0.17969 0.40625 0.46484 0.40625 0.85938 0 0.21094-0.054688 0.39062-0.15625 0.54688-0.09375 0.14844-0.23438 0.25781-0.42188 0.32812z"/>
  </symbol>
  <symbol id="s" overflow="visible">
   <path d="m0.03125-4.3281h3.9844v0.84375h-1.4375v3.4844h-1.1094v-3.4844h-1.4375z"/>
  </symbol>
  <symbol id="r" overflow="visible">
   <path d="m2.6406-4.5156v0.6875h-0.57812c-0.14844 0-0.25 0.027344-0.3125 0.078125-0.054688 0.054688-0.078125 0.14844-0.078125 0.28125v0.21875h0.875v0.75h-0.875v2.5h-1.0469v-2.5h-0.51562v-0.75h0.51562v-0.21875c0-0.35156 0.097656-0.61328 0.29688-0.78125 0.19531-0.17578 0.50391-0.26562 0.92188-0.26562z"/>
  </symbol>
  <symbol id="d" overflow="visible">
   <path d="m2.0469-2.5781c-0.23047 0-0.40625 0.085937-0.53125 0.25-0.11719 0.15625-0.17188 0.39062-0.17188 0.70312s0.054688 0.55469 0.17188 0.71875c0.125 0.16797 0.30078 0.25 0.53125 0.25 0.22656 0 0.39844-0.082031 0.51562-0.25 0.125-0.16406 0.1875-0.40625 0.1875-0.71875s-0.0625-0.54688-0.1875-0.70312c-0.11719-0.16406-0.28906-0.25-0.51562-0.25zm0-0.75c0.55078 0 0.98438 0.15234 1.2969 0.45312 0.32031 0.30469 0.48438 0.71875 0.48438 1.25s-0.16406 0.94922-0.48438 1.25c-0.3125 0.30469-0.74609 0.45312-1.2969 0.45312-0.5625 0-1.0078-0.14844-1.3281-0.45312-0.3125-0.30078-0.46875-0.71875-0.46875-1.25s0.15625-0.94531 0.46875-1.25c0.32031-0.30078 0.76562-0.45312 1.3281-0.45312z"/>
  </symbol>
  <symbol id="q" overflow="visible">
   <path d="m3.5156-2.7031c0.125-0.20703 0.27344-0.36328 0.45312-0.46875 0.1875-0.10156 0.39062-0.15625 0.60938-0.15625 0.36328 0 0.64453 0.11719 0.84375 0.34375 0.19531 0.23047 0.29688 0.5625 0.29688 1v1.9844h-1.0469v-1.6875-0.078125-0.125c0-0.22656-0.039063-0.39453-0.10938-0.5-0.0625-0.10156-0.16797-0.15625-0.3125-0.15625-0.19922 0-0.35547 0.085937-0.46875 0.25-0.10547 0.15625-0.15625 0.39062-0.15625 0.70312v1.5938h-1.0469v-1.6875c0-0.36328-0.03125-0.59766-0.09375-0.70312-0.0625-0.10156-0.17188-0.15625-0.32812-0.15625-0.19922 0-0.35547 0.085937-0.46875 0.25-0.10547 0.16797-0.15625 0.40234-0.15625 0.70312v1.5938h-1.0312v-3.25h1.0312v0.48438c0.13281-0.1875 0.28125-0.32812 0.4375-0.42188 0.16406-0.09375 0.34766-0.14062 0.54688-0.14062 0.22656 0 0.42578 0.058594 0.59375 0.17188 0.17578 0.10547 0.3125 0.25781 0.40625 0.45312z"/>
  </symbol>
  <symbol id="p" overflow="visible">
   <path d="m3.7656-1.9844v1.9844h-1.0469v-1.5c0-0.28906-0.007812-0.48828-0.015625-0.59375-0.011719-0.10156-0.03125-0.17969-0.0625-0.23438-0.042969-0.0625-0.10156-0.11328-0.17188-0.15625-0.074219-0.039063-0.15234-0.0625-0.23438-0.0625-0.21875 0-0.39062 0.085937-0.51562 0.25-0.125 0.16797-0.1875 0.40234-0.1875 0.70312v1.5938h-1.0312v-4.5156h1.0312v1.75c0.15625-0.19531 0.32031-0.33594 0.5-0.42188 0.17578-0.09375 0.375-0.14062 0.59375-0.14062 0.375 0 0.65625 0.11719 0.84375 0.34375 0.19531 0.23047 0.29688 0.5625 0.29688 1z"/>
  </symbol>
  <symbol id="o" overflow="visible">
   <path d="m0.54688-4.3281h1.25l1.5625 2.9688v-2.9688h1.0625v4.3281h-1.25l-1.5625-2.9688v2.9688h-1.0625z"/>
  </symbol>
  <symbol id="n" overflow="visible">
   <path d="m0.46875-1.2656v-1.9844h1.0312v0.32812 0.67188 0.51562c0 0.26172 0.003906 0.45312 0.015625 0.57812 0.019531 0.11719 0.046875 0.19922 0.078125 0.25 0.039062 0.0625 0.09375 0.11719 0.15625 0.15625 0.070312 0.03125 0.15625 0.046875 0.25 0.046875 0.20703 0 0.375-0.082031 0.5-0.25 0.125-0.16406 0.1875-0.39453 0.1875-0.6875v-1.6094h1.0469v3.25h-1.0469v-0.46875c-0.15625 0.1875-0.32422 0.32812-0.5 0.42188-0.16797 0.082031-0.35938 0.125-0.57812 0.125-0.375 0-0.66406-0.11328-0.85938-0.34375-0.1875-0.22656-0.28125-0.5625-0.28125-1z"/>
  </symbol>
  <symbol id="m" overflow="visible">
   <path d="m3.7656-1.9844v1.9844h-1.0469v-1.5156c0-0.28125-0.007812-0.47266-0.015625-0.57812-0.011719-0.10156-0.03125-0.17969-0.0625-0.23438-0.042969-0.0625-0.10156-0.11328-0.17188-0.15625-0.074219-0.039063-0.15234-0.0625-0.23438-0.0625-0.21875 0-0.39062 0.085937-0.51562 0.25-0.125 0.16797-0.1875 0.40234-0.1875 0.70312v1.5938h-1.0312v-3.25h1.0312v0.48438c0.15625-0.19531 0.32031-0.33594 0.5-0.42188 0.17578-0.09375 0.375-0.14062 0.59375-0.14062 0.375 0 0.65625 0.11719 0.84375 0.34375 0.19531 0.23047 0.29688 0.5625 0.29688 1z"/>
  </symbol>
  <symbol id="l" overflow="visible">
   <path d="m0.54688-4.3281h1.8438c0.55078 0 0.97266 0.125 1.2656 0.375 0.30078 0.24219 0.45312 0.58594 0.45312 1.0312 0 0.46094-0.15234 0.8125-0.45312 1.0625-0.29297 0.24219-0.71484 0.35938-1.2656 0.35938h-0.73438v1.5h-1.1094zm1.1094 0.8125v1.2031h0.625c0.21875 0 0.38281-0.050781 0.5-0.15625 0.11328-0.10156 0.17188-0.25391 0.17188-0.45312 0-0.1875-0.058594-0.33203-0.17188-0.4375-0.11719-0.10156-0.28125-0.15625-0.5-0.15625z"/>
  </symbol>
  <symbol id="k" overflow="visible">
   <path d="m0.5-3.25h1.0312v3.1875c0 0.4375-0.10547 0.76953-0.3125 1-0.21094 0.22656-0.51172 0.34375-0.90625 0.34375h-0.51562v-0.6875h0.1875c0.19531 0 0.33203-0.046875 0.40625-0.14062 0.070313-0.085937 0.10938-0.25781 0.10938-0.51562zm0-1.2656h1.0312v0.84375h-1.0312z"/>
  </symbol>
  <symbol id="j" overflow="visible">
   <path d="m3.125-3.1406v0.84375c-0.14844-0.09375-0.29297-0.16016-0.4375-0.20312-0.13672-0.050781-0.28125-0.078125-0.4375-0.078125-0.28125 0-0.50781 0.085937-0.67188 0.25-0.15625 0.16797-0.23438 0.40234-0.23438 0.70312 0 0.30469 0.078125 0.54297 0.23438 0.71875 0.16406 0.16797 0.39062 0.25 0.67188 0.25 0.16406 0 0.32031-0.019531 0.46875-0.0625 0.14453-0.050781 0.28125-0.125 0.40625-0.21875v0.84375c-0.16797 0.0625-0.33594 0.10156-0.5 0.125-0.16797 0.03125-0.33594 0.046875-0.5 0.046875-0.58594 0-1.043-0.14453-1.375-0.4375-0.33594-0.30078-0.5-0.72266-0.5-1.2656 0-0.53125 0.16406-0.94531 0.5-1.25 0.33203-0.30078 0.78906-0.45312 1.375-0.45312 0.16406 0 0.33203 0.015625 0.5 0.046875 0.16406 0.03125 0.33203 0.078125 0.5 0.14062z"/>
  </symbol>
 </defs>
 <g>
  <path d="m409.86 49.449 61.617 10.855c16.086 2.8359 26.863 18.215 24.027 34.285l-3.8477 21.801c3.2383-1.8008 6.875-2.7148 10.523-2.7148 17.895 0 27.961 21.383 16.629 35.113-3.2227 3.9023-3.7891 9.1211-1.8125 13.469 46.723-38.359 51.031-78.156 45.949-96.066-9.1836-32.379-26.977-51.18-54.383-57.48-30.801-7.082-90.02-2.1992-103.21 32.816-0.84375 3.5352 0.51172 7.2188 4.5117 7.9219z"/>
  <path d="m529.86 166.86c-10.121 8.9609-19.289 18.91-29.43 27.859-18.984 16.75-24.91 43.027-15.504 65.848 22.625-16.531 107.8-83.211 120.88-157.27 4.8398-27.43-0.72656-47.754-16.094-58.785-7.1797-5.1523-15.98-7.8789-26.242-8.1445 27.027 47.512 4.625 96.637-33.605 130.49z"/>
  <path d="m472.99 191.04c-9.8047 1.3828-19.961 0.91406-29.594-1.3555l-3.4297 20.117c10.094 4.5703 21.094 6.9727 32.23 7.043 3.8828-11.965 10.871-22.613 20.379-31.008 5.5195-4.8672 10.82-9.8438 15.801-14.824-6.2266-8.9492-5.9062-21.062 1.2773-29.766 3.3359-4.043 2.8555-9.9023-1.0977-13.344-3.9883-3.4766-10.078-3.1172-13.574 0.80469-4.1484 4.6484-7.9844 8.9336-7.9844 8.9336-3.8906 4.3516-11.277 0.76562-10.266-4.9805l7.082-40.129c1.6992-9.6328-4.7617-18.855-14.402-20.551l-53.234-9.3789c-2.8516 5.1602-4.9453 10.68-6.2344 16.465-10.117 45.254 3.0898 108.46 61.383 100.24 3.2383-0.45313 6.2461 1.7969 6.7031 5.043 0.46484 3.2383-1.793 6.2344-5.0391 6.6914z"/>
  <path d="m497.88 410.56 11.594-30.68c15.488-40.98 17.645-86.262 6.2695-128.49-15.852 13.34-27.945 21.805-29.918 23.066-0.93359 0.59766-2.0039 0.91406-3.0938 0.93359 3.9336 3.2305 7.2344 7.2383 9.6641 11.832 10.254 19.391 1.8516 44.113-18.016 53.297-25.227 11.66-59.125 27.289-77.34 35.555-5.0234 2.2773-10.582 3.082-15.988 2.3984-0.74219 6.4844-1.8828 12.938-3.4102 19.297l39.668 3.5195 8.7227-14.488c4.9531-8.2266 16.145-11.027 24.398-6.0664 8.2422 4.9531 11.016 15.574 6.3477 23.898 6.4141 0.37109 12.574 1.8438 17.723 5.9297z"/>
  <path d="m435.89 273.54c12.043-8.3945 28.242-9.2148 41.07-2.0781-7.0391-13.203-9.625-28.137-7.5117-42.82-10.977-0.39062-21.793-2.75-31.891-6.9609-4.2969 15.805-13.398 29.977-26.125 40.488l-33.215 27.441c-3.8281 3.1602-6.6758 7.1523-8.3789 11.695l13.09 9.1562z"/>
  <path d="m237.39 258.25 136.59 104.95c5.2148 4.0078 12.172 4.8047 18.164 2.0898 18.367-8.332 52.156-23.914 77.266-35.52 13.73-6.3477 19.594-23.598 12.504-37-7.4219-14.039-26.188-18.586-39.227-9.5l-56.355 39.289c-2.043 1.4219-4.7578 1.4219-6.7969-0.007813l-87.098-60.934c-1.5859-1.1094-2.5312-2.9219-2.5312-4.8555v-27.008c0-3.2578-2.6523-5.9062-5.9102-5.9062-3.2578 0-5.9102 2.6484-5.9102 5.9062v11.004c0 4.7344-5.5156 7.5664-9.3711 4.8281l-14.379-10.223c-5.9102-4.2031-14.617-3.0547-19.238 2.5234-5.0273 6.082-3.9766 15.547 2.2969 20.367z"/>
  <path d="m204.3 154.72c-5.9648-10.512-2.5195-23.629 7.8477-29.867 8.4102-5.0625 18.941-3.8945 26.031 2.1719l0.003906-23.676c0-16.891 13.773-30.633 30.699-30.633h63.316c16.102 0 29.688-13.492 29.68-29.602-0.007812-16.266-13.281-29.531-29.594-29.582l-96.609-0.27734h-0.070312c-15.301 0-50.449 11.656-61.918 47.809-7.8867 24.852-8.8438 63.52 29.816 108.39 3.0664-4.2227 3.5156-9.9414 0.79688-14.73z"/>
  <path d="m208.92 180.92v41.027c5.4453 3.3203 11.227 6.0352 17.266 8.1055 8.7227-10.242 24.031-12.168 35.027-4.3516l5.0117 3.5625c0.16016-5.8203 3.1797-11.125 7.9062-14.281l0.03125-5.2773c-9.6484-0.12891-28.062-2.0195-46.625-12.902-2.8242-1.6562-3.7734-5.2891-2.1133-8.1133 1.6562-2.8242 5.293-3.7695 8.1172-2.1133 24.492 14.359 59.84 17.383 81.191-4.1523 18.379-18.539 27.012-52.523 25.102-98.555-2.5039 0.46484-5.0547 0.70312-7.6289 0.70312h-63.316c-10.387 0-18.836 8.4219-18.836 18.777v42.531c0 5.832-7.8945 8.082-10.973 3.125 0 0-3.168-5.1016-6.5977-10.629-2.9688-4.7891-9.3438-6.3008-14.211-3.3711-4.8164 2.8945-6.418 8.9844-3.6484 13.863 6.1406 10.816 3.6289 24.184-5.7031 32.051z"/>
  <path d="m446.33 399c1.6797-2.7891 0.77344-6.4258-2.0195-8.1055-3.2617-1.5664-5.9648-0.89453-8.1133 2.0195l-10.633 17.668c-1.168 1.9414-3.3398 3.0391-5.6094 2.8477l-112-9.9336c-1.8867-0.16797-3.582-1.2227-4.5586-2.8477l-49.316-81.836c-4.9844-8.2695-14.168-13.43-23.816-13.43-22.609 0-35.668 27.246-21.695 44.906l64.887 82.004c5.5312 6.9883 13.816 11.082 22.734 11.227l161.53 2.6367c8.0898 0.17578 14.832-6.3438 15.008-14.434 0.17188-7.8633-5.8438-14.473-13.699-15.043l-12.73-0.92188c-4.3359-0.3125-6.8984-5.2422-4.6562-8.9688z"/>
  <path d="m624.07 542.21h-84.137c-6.3242-40.109-19.289-78.555-38.574-114.37l-2.918-5.4219h-15.422c1.0742 2.9883 1.6445 6.207 1.5703 9.5664-0.32031 14.59-12.441 26.223-27.062 26.031l-106.19-1.7344c-3.8398 8.1641-7.3008 16.094-10.52 24.117l-0.28516 61.816h-11.863l0.39844-86.297-33.066-0.54297c-12.492-0.20312-24.102-5.9375-31.848-15.73l-64.883-82.004c-14.387-18.184-9.668-45.688 9.9922-58.035 18.523-11.633 43.734-5.5938 54.992 13.09l47.762 79.258 17.34 1.5391c0.078125-16.746 0.94531-33.754-1.0195-50.414l-98.18-75.43c-8.3281-6.4023-11.816-17.113-9.4141-26.93-5.9375-2.1484-11.652-4.8555-17.078-8.082-21.652 32.031-31.266 70.551-27.129 109.09l0.03125 0.30469c3.6328 33.812 2.2812 67.922-4.0195 101.36-0.011719 0.054687-0.023437 0.10938-0.035156 0.16406-10.191 46.773-9.1523 85.09-8.3164 98.652l-88.262-0.003906c-3.2773 0-5.9336 2.6523-5.9336 5.9258s2.6562 5.9258 5.9336 5.9258h548.14c3.2773 0 5.9336-2.6523 5.9336-5.9258-0.003906-3.2734-2.6602-5.9258-5.9375-5.9258z"/>
  <path d="m111.79 394.04c-11.996 5.0312-34.934 22.664-25.914 38.371 8.9805 15.645 35.785 4.3945 45.938-3.3945 4.1328-3.168 10.152 0.34766 9.4961 5.457-1.6797 13.074 0.91016 32.914 13.816 40.055 2.6133-20.109 7.5273-39.789 9.6758-59.973-1.1406 0.15234-2.2891 0.23438-3.4414 0.23438-14.359 0-26.043-11.762-26.043-26.215 0-14.453 11.68-26.219 26.039-26.219 1.668 0 3.3164 0.17578 4.9297 0.48828-1.0039-20.664-3.7734-40.539-1.0664-61.262-20.309-6.9609-25.492 28.797-23.91 41.09 0.66016 5.1289-5.3906 8.6055-9.4961 5.457-10.148-7.7812-36.945-19.055-45.938-3.3945-9.0156 15.695 13.914 33.34 25.914 38.371 4.7539 1.9961 4.7539 8.9375 0 10.934z"/>
  <path d="m147.18 388.57c0 7.918 6.3594 14.359 14.176 14.359 1.5391 0 3.0703-0.26172 4.5273-0.76562 0.60938-8.957 0.875-17.941 0.76953-26.918-1.6719-0.68359-3.4648-1.0391-5.2969-1.0391-7.8164 0.003906-14.176 6.4453-14.176 14.363z"/>
  <path d="m535.09 402.93c7.8164 0 14.176-6.4414 14.176-14.359 0-7.918-6.3594-14.359-14.176-14.359-7.8164 0-14.176 6.4414-14.176 14.359 0 7.9141 6.3594 14.359 14.176 14.359z"/>
  <path d="m564.63 348.12c-4.1055 3.1445-10.156-0.32812-9.4961-5.457 1.6289-12.664-2.0508-42.363-20.352-41.738 0.49219 21.285-2.0508 42.27-7.5703 62.656 2.4883-0.79688 5.1328-1.2305 7.8789-1.2305 14.359 0 26.039 11.758 26.039 26.215 0 14.457-11.684 26.215-26.039 26.215-9.0391 0-17.016-4.6641-21.688-11.723l-4.9141 13s20.562 41.527 27.043 60.145c17.77-0.67969 21.246-28.969 19.602-41.738-0.66016-5.1289 5.3906-8.6016 9.4961-5.457 10.145 7.7812 36.945 19.055 45.938 3.3945 5.5742-9.7031-3.3867-25.824-19.559-35.211-1.2344-1.2344-5.0156-2.5977-6.3555-3.1602-4.7539-1.9922-4.7539-8.9375 0-10.93 12-5.0312 34.934-22.664 25.914-38.371-8.9883-15.648-35.785-4.3984-45.938 3.3906z"/>
 </g>
</svg>
