<?xml version="1.0" encoding="UTF-8"?>
<svg width="700pt" height="600pt" version="1.1" viewBox="0 0 700 700" xmlns="http://www.w3.org/2000/svg" xmlns:xlink="http://www.w3.org/1999/xlink">
 <defs>
  <symbol id="u" overflow="visible">
   <path d="m18.766-1.125c-0.96875 0.5-1.9805 0.875-3.0312 1.125-1.043 0.25781-2.1367 0.39062-3.2812 0.39062-3.3984 0-6.0898-0.94531-8.0781-2.8438-1.9922-1.9062-2.9844-4.4844-2.9844-7.7344 0-3.2578 0.99219-5.8359 2.9844-7.7344 1.9883-1.9062 4.6797-2.8594 8.0781-2.8594 1.1445 0 2.2383 0.13281 3.2812 0.39062 1.0508 0.25 2.0625 0.625 3.0312 1.125v4.2188c-0.98047-0.65625-1.9453-1.1406-2.8906-1.4531-0.94922-0.3125-1.9492-0.46875-3-0.46875-1.875 0-3.3516 0.60547-4.4219 1.8125-1.0742 1.1992-1.6094 2.8555-1.6094 4.9688 0 2.1055 0.53516 3.7617 1.6094 4.9688 1.0703 1.1992 2.5469 1.7969 4.4219 1.7969 1.0508 0 2.0508-0.14844 3-0.45312 0.94531-0.3125 1.9102-0.80078 2.8906-1.4688z"/>
  </symbol>
  <symbol id="b" overflow="visible">
   <path d="m13.734-11.141c-0.4375-0.19531-0.87109-0.34375-1.2969-0.4375-0.41797-0.10156-0.83984-0.15625-1.2656-0.15625-1.2617 0-2.2305 0.40625-2.9062 1.2188-0.67969 0.80469-1.0156 1.9531-1.0156 3.4531v7.0625h-4.8906v-15.312h4.8906v2.5156c0.625-1 1.3438-1.7266 2.1562-2.1875 0.82031-0.46875 1.8008-0.70312 2.9375-0.70312 0.16406 0 0.34375 0.011719 0.53125 0.03125 0.19531 0.011719 0.47656 0.039062 0.84375 0.078125z"/>
  </symbol>
  <symbol id="a" overflow="visible">
   <path d="m17.641-7.7031v1.4062h-11.453c0.125 1.1484 0.53906 2.0078 1.25 2.5781 0.70703 0.57422 1.7031 0.85938 2.9844 0.85938 1.0312 0 2.082-0.14844 3.1562-0.45312 1.082-0.3125 2.1914-0.77344 3.3281-1.3906v3.7656c-1.1562 0.4375-2.3125 0.76562-3.4688 0.98438-1.1562 0.22656-2.3125 0.34375-3.4688 0.34375-2.7734 0-4.9297-0.70312-6.4688-2.1094-1.5312-1.4062-2.2969-3.3789-2.2969-5.9219 0-2.5 0.75391-4.4609 2.2656-5.8906 1.5078-1.4375 3.582-2.1562 6.2188-2.1562 2.4062 0 4.332 0.73047 5.7812 2.1875 1.4453 1.4492 2.1719 3.3828 2.1719 5.7969zm-5.0312-1.625c0-0.92578-0.27344-1.6719-0.8125-2.2344-0.54297-0.57031-1.25-0.85938-2.125-0.85938-0.94922 0-1.7188 0.26562-2.3125 0.79688s-0.96484 1.2969-1.1094 2.2969z"/>
  </symbol>
  <symbol id="g" overflow="visible">
   <path d="m9.2188-6.8906c-1.0234 0-1.793 0.17188-2.3125 0.51562-0.51172 0.34375-0.76562 0.85547-0.76562 1.5312 0 0.625 0.20703 1.1172 0.625 1.4688 0.41406 0.34375 0.98828 0.51562 1.7188 0.51562 0.92578 0 1.7031-0.32812 2.3281-0.98438 0.63281-0.66406 0.95312-1.4922 0.95312-2.4844v-0.5625zm7.4688-1.8438v8.7344h-4.9219v-2.2656c-0.65625 0.92969-1.3984 1.6055-2.2188 2.0312-0.82422 0.41406-1.8242 0.625-3 0.625-1.5859 0-2.8711-0.45703-3.8594-1.375-0.99219-0.92578-1.4844-2.1289-1.4844-3.6094 0-1.7891 0.61328-3.1016 1.8438-3.9375 1.2383-0.84375 3.1797-1.2656 5.8281-1.2656h2.8906v-0.39062c0-0.76953-0.30859-1.332-0.92188-1.6875-0.61719-0.36328-1.5703-0.54688-2.8594-0.54688-1.0547 0-2.0312 0.10547-2.9375 0.3125-0.89844 0.21094-1.7305 0.52344-2.5 0.9375v-3.7344c1.0391-0.25 2.0859-0.44141 3.1406-0.57812 1.0625-0.13281 2.125-0.20312 3.1875-0.20312 2.7578 0 4.75 0.54688 5.9688 1.6406 1.2266 1.0859 1.8438 2.8555 1.8438 5.3125z"/>
  </symbol>
  <symbol id="d" overflow="visible">
   <path d="m7.7031-19.656v4.3438h5.0469v3.5h-5.0469v6.5c0 0.71094 0.14062 1.1875 0.42188 1.4375s0.83594 0.375 1.6719 0.375h2.5156v3.5h-4.1875c-1.9375 0-3.3125-0.39844-4.125-1.2031-0.80469-0.8125-1.2031-2.1797-1.2031-4.1094v-6.5h-2.4219v-3.5h2.4219v-4.3438z"/>
  </symbol>
  <symbol id="m" overflow="visible">
   <path d="m12.766-13.078v-8.2031h4.9219v21.281h-4.9219v-2.2188c-0.66797 0.90625-1.4062 1.5703-2.2188 1.9844s-1.7578 0.625-2.8281 0.625c-1.8867 0-3.4336-0.75-4.6406-2.25-1.2109-1.5-1.8125-3.4258-1.8125-5.7812 0-2.3633 0.60156-4.2969 1.8125-5.7969 1.207-1.5 2.7539-2.25 4.6406-2.25 1.0625 0 2 0.21484 2.8125 0.64062 0.82031 0.42969 1.5664 1.0859 2.2344 1.9688zm-3.2188 9.9219c1.0391 0 1.8359-0.37891 2.3906-1.1406 0.55078-0.76953 0.82812-1.8828 0.82812-3.3438 0-1.457-0.27734-2.5664-0.82812-3.3281-0.55469-0.76953-1.3516-1.1562-2.3906-1.1562-1.043 0-1.8398 0.38672-2.3906 1.1562-0.55469 0.76172-0.82812 1.8711-0.82812 3.3281 0 1.4609 0.27344 2.5742 0.82812 3.3438 0.55078 0.76172 1.3477 1.1406 2.3906 1.1406z"/>
  </symbol>
  <symbol id="l" overflow="visible">
   <path d="m10.5-3.1562c1.0508 0 1.8516-0.37891 2.4062-1.1406 0.55078-0.76953 0.82812-1.8828 0.82812-3.3438 0-1.457-0.27734-2.5664-0.82812-3.3281-0.55469-0.76953-1.3555-1.1562-2.4062-1.1562-1.0547 0-1.8594 0.38672-2.4219 1.1562-0.55469 0.77344-0.82812 1.8828-0.82812 3.3281 0 1.4492 0.27344 2.5586 0.82812 3.3281 0.5625 0.77344 1.3672 1.1562 2.4219 1.1562zm-3.25-9.9219c0.67578-0.88281 1.4219-1.5391 2.2344-1.9688 0.82031-0.42578 1.7656-0.64062 2.8281-0.64062 1.8945 0 3.4453 0.75 4.6562 2.25 1.207 1.5 1.8125 3.4336 1.8125 5.7969 0 2.3555-0.60547 4.2812-1.8125 5.7812-1.2109 1.5-2.7617 2.25-4.6562 2.25-1.0625 0-2.0078-0.21094-2.8281-0.625-0.8125-0.42578-1.5586-1.0859-2.2344-1.9844v2.2188h-4.8906v-21.281h4.8906z"/>
  </symbol>
  <symbol id="k" overflow="visible">
   <path d="m0.34375-15.312h4.8906l4.125 10.391 3.5-10.391h4.8906l-6.4375 16.766c-0.64844 1.6953-1.4023 2.8828-2.2656 3.5625-0.86719 0.6875-2 1.0312-3.4062 1.0312h-2.8438v-3.2188h1.5312c0.83203 0 1.4375-0.13672 1.8125-0.40625 0.38281-0.26172 0.67969-0.73047 0.89062-1.4062l0.14062-0.42188z"/>
  </symbol>
  <symbol id="f" overflow="visible">
   <path d="m10.75-12.516c0.82031 0 1.4453-0.17969 1.875-0.54688 0.4375-0.36328 0.65625-0.89844 0.65625-1.6094 0-0.69531-0.21875-1.2266-0.65625-1.5938-0.42969-0.375-1.0547-0.5625-1.875-0.5625h-2.9219v4.3125zm0.17188 8.9375c1.0625 0 1.8594-0.22266 2.3906-0.67188 0.53125-0.44531 0.79688-1.125 0.79688-2.0312 0-0.88281-0.26562-1.5469-0.79688-1.9844-0.52344-0.4375-1.3203-0.65625-2.3906-0.65625h-3.0938v5.3438zm4.8906-7.3438c1.1328 0.32422 2.0078 0.92969 2.625 1.8125 0.625 0.88672 0.9375 1.9688 0.9375 3.25 0 1.9688-0.66797 3.4375-2 4.4062-1.3359 0.96875-3.3555 1.4531-6.0625 1.4531h-8.7344v-20.406h7.8906c2.832 0 4.8828 0.42969 6.1562 1.2812 1.2812 0.85547 1.9219 2.2266 1.9219 4.1094 0 1-0.23438 1.8516-0.70312 2.5469-0.46875 0.6875-1.1484 1.2031-2.0312 1.5469z"/>
  </symbol>
  <symbol id="e" overflow="visible">
   <path d="m17.75-9.3281v9.3281h-4.9219v-7.1406c0-1.3203-0.03125-2.2344-0.09375-2.7344s-0.16797-0.86719-0.3125-1.1094c-0.1875-0.3125-0.44922-0.55469-0.78125-0.73438-0.32422-0.17578-0.69531-0.26562-1.1094-0.26562-1.0234 0-1.8242 0.39844-2.4062 1.1875-0.58594 0.78125-0.875 1.8711-0.875 3.2656v7.5312h-4.8906v-15.312h4.8906v2.2344c0.73828-0.88281 1.5195-1.5391 2.3438-1.9688 0.83203-0.42578 1.75-0.64062 2.75-0.64062 1.7695 0 3.1133 0.54688 4.0312 1.6406 0.91406 1.0859 1.375 2.6562 1.375 4.7188z"/>
  </symbol>
  <symbol id="j" overflow="visible">
   <path d="m2.3594-15.312h4.8906v15.031c0 2.0508-0.49609 3.6172-1.4844 4.7031-0.98047 1.082-2.4062 1.625-4.2812 1.625h-2.4219v-3.2188h0.85938c0.92578 0 1.5625-0.21094 1.9062-0.625 0.35156-0.41797 0.53125-1.2461 0.53125-2.4844zm0-5.9688h4.8906v4h-4.8906z"/>
  </symbol>
  <symbol id="i" overflow="visible">
   <path d="m16.547-12.766c0.61328-0.94531 1.3477-1.6719 2.2031-2.1719 0.85156-0.5 1.7891-0.75 2.8125-0.75 1.7578 0 3.0977 0.54688 4.0156 1.6406 0.92578 1.0859 1.3906 2.6562 1.3906 4.7188v9.3281h-4.9219v-7.9844-0.35938c0.007813-0.13281 0.015625-0.32031 0.015625-0.5625 0-1.082-0.16406-1.8633-0.48438-2.3438-0.3125-0.48828-0.82422-0.73438-1.5312-0.73438-0.92969 0-1.6484 0.38672-2.1562 1.1562-0.51172 0.76172-0.77344 1.8672-0.78125 3.3125v7.5156h-4.9219v-7.9844c0-1.6953-0.14844-2.7852-0.4375-3.2656-0.29297-0.48828-0.8125-0.73438-1.5625-0.73438-0.9375 0-1.6641 0.38672-2.1719 1.1562-0.51172 0.76172-0.76562 1.8594-0.76562 3.2969v7.5312h-4.9219v-15.312h4.9219v2.2344c0.60156-0.86328 1.2891-1.5156 2.0625-1.9531 0.78125-0.4375 1.6406-0.65625 2.5781-0.65625 1.0625 0 2 0.25781 2.8125 0.76562 0.8125 0.51172 1.4258 1.2305 1.8438 2.1562z"/>
  </symbol>
  <symbol id="t" overflow="visible">
   <path d="m2.3594-15.312h4.8906v15.312h-4.8906zm0-5.9688h4.8906v4h-4.8906z"/>
  </symbol>
  <symbol id="c" overflow="visible">
   <path d="m9.6406-12.188c-1.0859 0-1.9141 0.39062-2.4844 1.1719-0.57422 0.78125-0.85938 1.9062-0.85938 3.375s0.28516 2.5938 0.85938 3.375c0.57031 0.77344 1.3984 1.1562 2.4844 1.1562 1.0625 0 1.875-0.38281 2.4375-1.1562 0.57031-0.78125 0.85938-1.9062 0.85938-3.375s-0.28906-2.5938-0.85938-3.375c-0.5625-0.78125-1.375-1.1719-2.4375-1.1719zm0-3.5c2.6328 0 4.6914 0.71484 6.1719 2.1406 1.4766 1.418 2.2188 3.3867 2.2188 5.9062 0 2.5117-0.74219 4.4805-2.2188 5.9062-1.4805 1.418-3.5391 2.125-6.1719 2.125-2.6484 0-4.7148-0.70703-6.2031-2.125-1.4922-1.4258-2.2344-3.3945-2.2344-5.9062 0-2.5195 0.74219-4.4883 2.2344-5.9062 1.4883-1.4258 3.5547-2.1406 6.2031-2.1406z"/>
  </symbol>
  <symbol id="h" overflow="visible">
   <path d="m2.1875-5.9688v-9.3438h4.9219v1.5312c0 0.83594-0.007813 1.875-0.015625 3.125-0.011719 1.25-0.015625 2.0859-0.015625 2.5 0 1.2422 0.03125 2.1328 0.09375 2.6719 0.070313 0.54297 0.17969 0.93359 0.32812 1.1719 0.20703 0.32422 0.47266 0.57422 0.79688 0.75 0.32031 0.16797 0.69141 0.25 1.1094 0.25 1.0195 0 1.8203-0.39062 2.4062-1.1719 0.58203-0.78125 0.875-1.8672 0.875-3.2656v-7.5625h4.8906v15.312h-4.8906v-2.2188c-0.74219 0.89844-1.5234 1.5586-2.3438 1.9844-0.82422 0.41406-1.7344 0.625-2.7344 0.625-1.7617 0-3.1055-0.53906-4.0312-1.625-0.92969-1.082-1.3906-2.6602-1.3906-4.7344z"/>
  </symbol>
  <symbol id="s" overflow="visible">
   <path d="m14.312-14.828v3.7188c-1.043-0.4375-2.0547-0.76562-3.0312-0.98438-0.98047-0.21875-1.9023-0.32812-2.7656-0.32812-0.92969 0-1.6211 0.11719-2.0781 0.34375-0.44922 0.23047-0.67188 0.58984-0.67188 1.0781 0 0.38672 0.17188 0.68359 0.51562 0.89062 0.34375 0.21094 0.95703 0.36719 1.8438 0.46875l0.85938 0.125c2.5078 0.32422 4.1953 0.85156 5.0625 1.5781 0.86328 0.73047 1.2969 1.8711 1.2969 3.4219 0 1.6367-0.60547 2.8672-1.8125 3.6875-1.1992 0.8125-2.9922 1.2188-5.375 1.2188-1.0234 0-2.0742-0.078125-3.1562-0.23438-1.0742-0.15625-2.1797-0.39453-3.3125-0.71875v-3.7188c0.96875 0.48047 1.9609 0.83984 2.9844 1.0781 1.0312 0.23047 2.0781 0.34375 3.1406 0.34375 0.95703 0 1.6758-0.12891 2.1562-0.39062 0.47656-0.26953 0.71875-0.66406 0.71875-1.1875 0-0.4375-0.16797-0.75781-0.5-0.96875-0.33594-0.21875-0.99609-0.38281-1.9844-0.5l-0.85938-0.10938c-2.1797-0.26953-3.7031-0.77344-4.5781-1.5156-0.875-0.73828-1.3125-1.8594-1.3125-3.3594 0-1.625 0.55078-2.8281 1.6562-3.6094 1.1133-0.78906 2.8203-1.1875 5.125-1.1875 0.89453 0 1.8359 0.074219 2.8281 0.21875 1 0.13672 2.082 0.35156 3.25 0.64062z"/>
  </symbol>
  <symbol id="r" overflow="visible">
   <path d="m12.422-21.281v3.2188h-2.7031c-0.6875 0-1.1719 0.125-1.4531 0.375-0.27344 0.25-0.40625 0.6875-0.40625 1.3125v1.0625h4.1875v3.5h-4.1875v11.812h-4.8906v-11.812h-2.4375v-3.5h2.4375v-1.0625c0-1.6641 0.46094-2.8984 1.3906-3.7031 0.92578-0.80078 2.3672-1.2031 4.3281-1.2031z"/>
  </symbol>
  <symbol id="q" overflow="visible">
   <path d="m17.75-9.3281v9.3281h-4.9219v-7.1094c0-1.3438-0.03125-2.2656-0.09375-2.7656s-0.16797-0.86719-0.3125-1.1094c-0.1875-0.3125-0.44922-0.55469-0.78125-0.73438-0.32422-0.17578-0.69531-0.26562-1.1094-0.26562-1.0234 0-1.8242 0.39844-2.4062 1.1875-0.58594 0.78125-0.875 1.8711-0.875 3.2656v7.5312h-4.8906v-21.281h4.8906v8.2031c0.73828-0.88281 1.5195-1.5391 2.3438-1.9688 0.83203-0.42578 1.75-0.64062 2.75-0.64062 1.7695 0 3.1133 0.54688 4.0312 1.6406 0.91406 1.0859 1.375 2.6562 1.375 4.7188z"/>
  </symbol>
  <symbol id="p" overflow="visible">
   <path d="m2.5781-20.406h5.875l7.4219 14v-14h4.9844v20.406h-5.875l-7.4219-14v14h-4.9844z"/>
  </symbol>
  <symbol id="o" overflow="visible">
   <path d="m2.5781-20.406h8.7344c2.5938 0 4.582 0.57812 5.9688 1.7344 1.3945 1.1484 2.0938 2.7891 2.0938 4.9219 0 2.1367-0.69922 3.7812-2.0938 4.9375-1.3867 1.1562-3.375 1.7344-5.9688 1.7344h-3.4844v7.0781h-5.25zm5.25 3.8125v5.7031h2.9219c1.0195 0 1.8047-0.25 2.3594-0.75 0.5625-0.5 0.84375-1.2031 0.84375-2.1094 0-0.91406-0.28125-1.6172-0.84375-2.1094-0.55469-0.48828-1.3398-0.73438-2.3594-0.73438z"/>
  </symbol>
  <symbol id="n" overflow="visible">
   <path d="m14.719-14.828v3.9844c-0.65625-0.45703-1.3242-0.79688-2-1.0156-0.66797-0.21875-1.3594-0.32812-2.0781-0.32812-1.3672 0-2.4336 0.40234-3.2031 1.2031-0.76172 0.79297-1.1406 1.9062-1.1406 3.3438 0 1.4297 0.37891 2.543 1.1406 3.3438 0.76953 0.79297 1.8359 1.1875 3.2031 1.1875 0.75781 0 1.4844-0.10938 2.1719-0.32812 0.6875-0.22656 1.3203-0.56641 1.9062-1.0156v4c-0.76172 0.28125-1.5391 0.48828-2.3281 0.625-0.78125 0.14453-1.5742 0.21875-2.375 0.21875-2.7617 0-4.9219-0.70703-6.4844-2.125-1.5547-1.4141-2.3281-3.3828-2.3281-5.9062 0-2.5312 0.77344-4.5039 2.3281-5.9219 1.5625-1.4141 3.7227-2.125 6.4844-2.125 0.80078 0 1.5938 0.074219 2.375 0.21875 0.78125 0.13672 1.5547 0.35156 2.3281 0.64062z"/>
  </symbol>
 </defs>
 <g>
  <path d="m351.15 481.12-31.617 4.7148c-1.2891 0.19531-2.1992 1.3555-2.0781 2.6602l3.375 35.746c0.09375 1.0195 0.81641 1.8711 1.8086 2.1328 0.20703 0.054688 0.42188 0.089844 0.62891 0.089844 0.78516 0 1.5352-0.37891 2.0039-1.0547l28.242-40.473c0.56641-0.80078 0.58984-1.8594 0.078125-2.6875-0.51562-0.83203-1.4844-1.2695-2.4414-1.1289z"/>
  <path d="m464.26 386.9c-0.23047-0.86328-0.90625-1.5273-1.7695-1.7461-0.875-0.21875-1.7852 0.054687-2.3906 0.71094l-23.297 25.211c-0.46094 0.49219-0.69531 1.1602-0.64453 1.8242 0.050782 0.67578 0.36328 1.3008 0.89453 1.7305l38.414 31.41c0.44922 0.35938 0.99609 0.54688 1.5508 0.54688 0.46094 0 0.91797-0.12891 1.3203-0.39063 0.89062-0.57031 1.3086-1.6641 1.043-2.6875z"/>
  <path d="m585.14 126.46c-3.6719-5.0625-11.457-6.3242-18.109-2.9336l-9.9727 5.168c-0.78516-3.0508-2.3906-7.0781-5.543-8.1602-1.5781-0.54687-4.0977-0.57031-7.1016 2.4375-3.7109 3.707-5.0977 8.2305-6.2148 11.859-1.3906 4.5078-2.1797 6.6914-4.8906 7.2305l-1.9766 0.25391c-32.105 4.1055-40.066 4.4023-49.363 4.4023-40.887 0-62.715-12.531-72.043-17.879-1.2617-0.72656-2.2695-1.3047-3.0508-1.6953-0.023438-0.011719-0.042969-0.003907-0.066406-0.015626-0.023438-0.011718-0.027344-0.027343-0.050782-0.035156l-28.207-12.383c-0.39844-0.17188-0.83594-0.23438-1.2773-0.18359l-4.8203 0.57031c0.125-1.6641 0.21094-3.3711 0.21094-5.168v-19.125c3.4727-1.3438 5.6797-6.4922 6.0586-11.379 0.6875-8.832-3.9414-19.105-19.008-21.465-4.9688-0.77734-9.8555-1.1758-14.527-1.1758-24.297 0-38.191 10.355-38.875 17.832-0.25781 2.7773 1.2773 6.0859 6.3438 7.0234 1.9141 0.35156 4.4844 0.81641 7.8398 1.3984v26.891c0 5.0742 0.97266 9.457 2.6484 13.215l-7.4492 3.7422c-0.58984 0.29688-1.043 0.81641-1.2383 1.457-0.19531 0.62891-0.13281 1.3086 0.17969 1.8945l4.4961 8.3555-9.0273 3.6953-20.52-47.652v-0.011719s-0.003906-0.003906-0.003906-0.011718l-4.5078-10.457c-0.011718-0.035156-0.042968-0.054687-0.0625-0.089844 3.4219-4.0312 7.3086-9.9531 8.1367-16.789 0.45312-3.8008-0.34766-6.9062-2.375-9.2305-1.9414-2.2188-4.5625-3.125-6.3711-3.5-3.0781-16.457-10.129-20.512-15.598-20.973-9.5312-0.82812-19.125 9.0625-20.949 14.477-6.7969 20.121 8.2305 44.34 10.254 47.465l24.754 78.797c4.5195 13.57 14.863 17.922 22.934 19.176l-20.848 78.512c-0.19531 0.73438-0.039062 1.5195 0.42188 2.1211 0.46484 0.59766 1.1797 0.95312 1.9414 0.95312h16.16c-16.195 22.895-43.469 64.25-43.941 83.77-0.74609 30.406 53.906 117.94 56.234 121.65 0.44922 0.72266 1.2383 1.1484 2.0703 1.1484 0.125 0 0.25391-0.011719 0.37109-0.035156l33.684-5.2188c0.72656-0.11328 1.3672-0.53906 1.7422-1.1719s0.4375-1.3984 0.18359-2.0898l-29.941-81.855c-0.25781-0.69922-0.81641-1.2617-1.5273-1.4883l-22.645-7.4922c-15.703-6.7266-8.1211-33.449-8.0352-33.75l27.758-87.227c0.027344-0.10156 0.011719-0.18359 0.035156-0.27344 0.11328-0.29688 0.16406-0.62109 0.14062-0.96484-4.8398-87.988 11.109-115.97 17.098-123.26 4.5312 2.1992 9.6133 3.3828 14.766 3.6133l-10.555 16.414c-0.26953 0.42188-0.40234 0.92578-0.37891 1.4297l4.4297 105.13-17.754-2.2617c-1.1875-0.15234-2.2852 0.57031-2.6445 1.6953l-27.777 87.293c-0.066406 0.21875-6.0977 22.477 5.0234 27.242 11.711 5.0195 94.367 28.676 128.77 32.613 0.09375 0.011719 0.18359 0.011719 0.28125 0.011719 0.67578 0 1.3281-0.28516 1.7969-0.78906l23.297-25.199c0.54297-0.58984 0.76563-1.4102 0.59375-2.1914-0.17187-0.78906-0.71875-1.4336-1.457-1.7422l-96.707-40.086 23.613-55.125 20.34 1.8711c0.078125 0.011719 0.15234 0.011719 0.22266 0.011719 1.2305 0 2.2773-0.91797 2.4297-2.168l11.91-100.14c9.8906 0.66797 19.258 0.98438 28.117 0.98438 95.418 0 132.18-35.559 133.84-37.219 11.887-11.855 7.8242-19.637 6.2891-21.738zm-322.46-32.73c-0.066406-0.22266-0.16797-0.42969-0.29688-0.62891-0.16797-0.24219-16.246-24.645-9.8906-43.477 1.3672-4.0469 9.2188-11.688 15.902-11.16 7.1133 0.59375 10.164 10.484 11.48 18.672 0.18359 1.1641 1.1992 2.0273 2.375 2.0625 0.035156 0 3.125 0.10547 4.8594 2.1094 1.0586 1.2305 1.4609 3.0469 1.1719 5.3945-1.2656 10.465-11.789 19.02-11.895 19.102-1.0547 0.84375-1.2266 2.3867-0.37891 3.4453 0.84375 1.0586 2.3867 1.2305 3.4375 0.37891 0.11719-0.089843 0.85156-0.69531 1.9219-1.6953l2.6992 6.2734-18.859 7.5586zm55.191 53.457c-0.027343 0.089844-0.050781 0.18359-0.066406 0.27344l-0.38672 2.2969-10.383 39.082c-6.7891-0.90234-15.637-4.4023-19.504-16.027l-20.852-66.367 19.324-7.7461 20.559 47.719c0.054687 0.125 0.13281 0.21875 0.20703 0.33203 0.054687 0.10156 0.10547 0.20312 0.17188 0.28516 0.089844 0.11328 0.20312 0.18359 0.30078 0.27344 0.078125 0.066406 0.14453 0.14062 0.23047 0.19531 0.12891 0.089844 0.26953 0.13281 0.41016 0.19531 0.078125 0.027344 0.14453 0.078125 0.23047 0.10156 0.22266 0.074218 0.46094 0.11328 0.69922 0.11328 0.30859 0 0.62109-0.066407 0.92969-0.18359l9.0547-3.7109zm49.895-56.477v19.207c0 1.3477-0.0625 3.4102-0.29687 5.7617l-18.402 2.1953c-0.73828 0.089844-1.3945 0.50781-1.7852 1.1367-0.39063 0.63281-0.47656 1.4102-0.22266 2.1172l5.1562 14.441c-12.629-0.37891-26.809-7.2422-26.809-25.652v-26.059c9.043 1.5352 22.473 3.7305 42.359 6.8516zm47.785 88.742c-2.3125-1.5859-12.621-9.2305-15.133-21.504-1.6445-8.0703 0.46094-16.609 6.1719-25.387 0.29688 0.16406 0.57031 0.32031 0.90234 0.51562 9.6641 5.543 32.289 18.531 74.48 18.531 7.4648 0 14.09-0.18359 32.352-2.2852l2.832 22.551c0.015624 0.16406 0.09375 0.30859 0.14062 0.46094-24.586 6.2539-57.91 10.242-101.75 7.1172zm159.86-34.703c-1.0547 1.0547-16.605 16.094-53.418 26.344l-2.8008-22.34c3.793-0.45312 8.0078-0.98047 12.758-1.5859l2.1406-0.27344c5.8867-1.1602 7.4258-6.1836 8.793-10.617 1.0586-3.4375 2.1523-6.9961 5-9.8438 1.082-1.0703 1.8203-1.3438 2.043-1.2695 1.0625 0.36328 2.4883 4.0273 2.918 7.5195 0.10156 0.79688 0.58203 1.4961 1.2812 1.8633 0.71875 0.37109 1.5586 0.375 2.2695 0.011719l12.875-6.668c4.4531-2.2617 9.6836-1.6172 11.918 1.457 2.5391 3.4844 0.37891 9.2422-5.7773 15.402z"/>
 </g>
</svg>
