<?xml version="1.0" standalone="no"?><svg xmlns="http://www.w3.org/2000/svg" viewBox="0 0 1440 320"><path fill="#540000" fill-opacity="1" d="M0,0L13.3,10.7C26.7,21,53,43,80,69.3C106.7,96,133,128,160,138.7C186.7,149,213,139,240,112C266.7,85,293,43,320,58.7C346.7,75,373,149,400,160C426.7,171,453,117,480,80C506.7,43,533,21,560,10.7C586.7,0,613,0,640,53.3C666.7,107,693,213,720,256C746.7,299,773,277,800,245.3C826.7,213,853,171,880,176C906.7,181,933,235,960,229.3C986.7,224,1013,160,1040,133.3C1066.7,107,1093,117,1120,144C1146.7,171,1173,213,1200,202.7C1226.7,192,1253,128,1280,117.3C1306.7,107,1333,149,1360,154.7C1386.7,160,1413,128,1427,112L1440,96L1440,320L1426.7,320C1413.3,320,1387,320,1360,320C1333.3,320,1307,320,1280,320C1253.3,320,1227,320,1200,320C1173.3,320,1147,320,1120,320C1093.3,320,1067,320,1040,320C1013.3,320,987,320,960,320C933.3,320,907,320,880,320C853.3,320,827,320,800,320C773.3,320,747,320,720,320C693.3,320,667,320,640,320C613.3,320,587,320,560,320C533.3,320,507,320,480,320C453.3,320,427,320,400,320C373.3,320,347,320,320,320C293.3,320,267,320,240,320C213.3,320,187,320,160,320C133.3,320,107,320,80,320C53.3,320,27,320,13,320L0,320Z"></path></svg>